Coordinates
version=1
nRows=20
nColumns=32
inDegrees=yes

Units are S.I. units (second, meters, Newtons, ...)
If the header above contains a line with 'inDegrees', this indicates whether rotational values are in degrees (yes) or radians (no).

endheader
time	pelvis_tilt	pelvis_list	pelvis_rotation	pelvis_tx	pelvis_ty	pelvis_tz	hip_flexion_r	hip_adduction_r	hip_rotation_r	knee_angle_r	knee_adduction_r	med_cond_adduction_r	lat_cond_adduction_r	patella_r_constrained_knee_angle	ankle_angle_r	subtalar_angle_r	mtp_angle_r	hip_flexion_l	hip_adduction_l	hip_rotation_l	knee_angle_l	knee_adduction_l	med_cond_adduction_l	lat_cond_adduction_l	patella_l_constrained_knee_angle	ankle_angle_l	subtalar_angle_l	mtp_angle_l	lumbar_extension	lumbar_bending	lumbar_rotation
      0.44500000	      5.86025237	     -2.68163457	      0.66703026	     -0.09909686	      0.95031407	      0.26830650	     -3.85535980	      2.06080959	    -10.11930120	     -7.57018866	      3.58046809	      0.00000000	      0.00000000	     -0.13212472	     -1.98711617	     -4.20076039	      0.00000000	     12.51440208	    -13.52352095	    -18.93859730	    -64.15032841	     -5.77644771	     -0.00000000	     -0.00000000	     -1.11963445	     -3.03557344	      3.69080875	      0.00000000	     -6.22120094	      6.04418534	     -4.65243083
      0.45000000	      5.88962969	     -2.50213430	      0.49314547	     -0.09280001	      0.95079259	      0.26858919	     -4.52499411	      1.82790167	    -10.16189206	     -7.20491962	      3.71021777	      0.00000000	      0.00000000	     -0.12574957	     -1.87273334	     -4.02232031	     -0.00000000	     13.07442066	    -13.28824728	    -18.57393050	    -63.41469970	     -5.11357385	     -0.00000000	     -0.00000000	     -1.10679530	     -2.37847435	      3.63196802	      0.00000000	     -6.28037952	      5.80333188	     -4.49203087
      0.45500000	      5.80321186	     -2.65716333	      0.07819773	     -0.08646922	      0.95090631	      0.26964740	     -5.09815896	      2.12752441	     -9.69049237	     -6.66212400	      3.59362120	     -0.00000000	     -0.00000000	     -0.11627600	     -2.01788284	     -4.12883445	     -0.00000000	     13.70069131	    -13.66693386	    -18.25291374	    -62.76150183	     -4.16515413	     -0.00000000	     -0.00000000	     -1.09539485	     -1.62898622	      3.63147208	      0.00000000	     -6.21539162	      5.75421161	     -4.34382867
      0.46000000	      5.79350782	     -2.54488156	     -0.02942590	     -0.08017399	      0.95114433	      0.26982485	     -5.73245304	      1.97325315	     -9.74504484	     -6.27068292	      3.71228988	      0.00000000	      0.00000000	     -0.10944406	     -1.93871692	     -4.01576862	      0.00000000	     14.29725445	    -13.50196905	    -17.79082218	    -61.95093440	     -3.47229269	      0.00000000	     -0.00000000	     -1.08124778	     -1.06491360	      3.48694889	      0.00000000	     -6.21384649	      5.61449070	     -4.22802987
      0.46500000	      5.85475889	     -2.36412388	     -0.40869670	     -0.07390174	      0.95155598	      0.27065001	     -6.41925617	      1.77697122	     -9.43501988	     -5.89288615	      3.76098554	      0.00000000	      0.00000000	     -0.10285027	     -1.88460097	     -4.01351533	     -0.00000000	     14.64608202	    -13.36242868	    -17.72702713	    -60.95475983	     -2.82806120	     -0.00000000	     -0.00000000	     -1.06386125	     -0.56592767	      3.36543063	     -0.00000000	     -6.34618572	      5.33125555	     -3.83077451
      0.47000000	      5.89238726	     -2.14581134	     -0.68231916	     -0.06760934	      0.95184672	      0.27125783	     -7.02978223	      1.49644327	     -9.40337286	     -5.64576563	      3.84452632	      0.00000000	      0.00000000	     -0.09853720	     -1.66043815	     -3.70348517	     -0.00000000	     15.03766308	    -13.11985713	    -17.52901892	    -59.91367878	     -2.18969464	     -0.00000000	     -0.00000000	     -1.04569096	     -0.14573222	      3.13610833	      0.00000000	     -6.42857980	      5.18551826	     -3.25061808
      0.47500000	      5.86951662	     -2.12888575	     -0.63514010	     -0.06129978	      0.95183678	      0.27096471	     -7.66850431	      1.41697511	     -9.59103990	     -5.24206770	      3.99842439	     -0.00000000	     -0.00000000	     -0.09149134	     -1.64520039	     -3.57931534	      0.00000000	     15.66982497	    -12.98822220	    -17.05452680	    -59.00035073	     -1.67423652	      0.00000000	      0.00000000	     -1.02975038	      0.33654121	      3.08043280	     -0.00000000	     -6.40004007	      4.93250912	     -3.76395828
      0.48000000	      5.89593999	     -2.10768356	     -1.08767143	     -0.05501067	      0.95195266	      0.27207641	     -8.34171193	      1.45475512	     -9.01868187	     -4.76917163	      3.94402157	     -0.00000000	     -0.00000000	     -0.08323775	     -1.67667489	     -3.82879864	     -0.00000000	     15.98661441	    -13.11256711	    -17.12691784	    -57.90637220	     -1.07807732	      0.00000000	      0.00000000	     -1.01065685	      0.71210504	      3.01547340	      0.00000000	     -6.48925514	      4.66346836	     -3.53422243
      0.48500000	      5.88981681	     -2.12023520	     -1.25269923	     -0.04874123	      0.95186156	      0.27239672	     -8.92172620	      1.44104466	     -8.99760023	     -4.48132149	      3.99272513	      0.00000000	      0.00000000	     -0.07821381	     -1.59183771	     -3.66035718	     -0.00000000	     16.46522742	    -13.14046349	    -16.93171451	    -56.86062171	     -0.55666589	      0.00000000	     -0.00000000	     -0.99240506	      1.06398797	      2.95430142	     -0.00000000	     -6.51573738	      4.62669165	     -3.40154246
      0.49000000	      5.94379881	     -1.98667447	     -1.52243965	     -0.04244942	      0.95194091	      0.27300016	     -9.60108619	      1.26239546	     -8.76482094	     -4.10555395	      4.06168340	      0.00000000	      0.00000000	     -0.07165543	     -1.49946226	     -3.63522233	     -0.00000000	     16.75439947	    -12.99559199	    -16.99623806	    -55.61986846	     -0.19143141	      0.00000000	      0.00000000	     -0.97074983	      1.31604041	      2.90627936	      0.00000000	     -6.61849927	      4.43107965	     -3.06934255
      0.49500000	      5.98395948	     -1.89789330	     -1.78619283	     -0.03620841	      0.95186964	      0.27353196	    -10.22778997	      1.12105558	     -8.56272048	     -3.81232639	      4.11526604	     -0.00000000	     -0.00000000	     -0.06653765	     -1.32712853	     -3.51868480	     -0.00000000	     17.06409802	    -12.90050498	    -17.07250610	    -54.38522191	      0.16017278	      0.00000000	      0.00000000	     -0.94920119	      1.60061953	      2.86208499	      0.00000000	     -6.71453638	      4.25468131	     -2.83078179
      0.50000000	      6.00724112	     -1.85427010	     -2.09283029	     -0.02993520	      0.95175732	      0.27407781	    -10.85905580	      1.02523348	     -8.26285662	     -3.45138338	      4.15466261	      0.00000000	      0.00000000	     -0.06023800	     -1.32042196	     -3.52846955	     -0.00000000	     17.35916907	    -12.84923645	    -17.27586260	    -53.09613162	      0.39213457	      0.00000000	      0.00000000	     -0.92670232	      1.84200588	      2.80314098	     -0.00000000	     -6.78222014	      4.01012565	     -2.72571219
      0.50500000	      6.08916795	     -1.69407013	     -2.47553714	     -0.02365459	      0.95172602	      0.27490296	    -11.58615686	      0.79295022	     -7.80306509	     -3.01575261	      4.22715480	     -0.00000000	     -0.00000000	     -0.05263481	     -1.29341499	     -3.71698643	      0.00000000	     17.49746015	    -12.69468534	    -17.69381672	    -51.67053134	      0.54337490	     -0.00000000	     -0.00000000	     -0.90182090	      2.00178773	      2.87604704	     -0.00000000	     -6.93783085	      3.64134662	     -2.46243548
      0.51000000	      6.11749326	     -1.61424730	     -2.59209206	     -0.01737213	      0.95142501	      0.27501688	    -12.16787675	      0.60870089	     -7.90657384	     -2.83368294	      4.34706861	     -0.00000000	     -0.00000000	     -0.04945710	     -1.02600012	     -3.39147060	      0.00000000	     17.81917362	    -12.49214387	    -17.84205819	    -50.30947374	      0.60891897	     -0.00000000	     -0.00000000	     -0.87806596	      2.14652132	      2.87650216	      0.00000000	     -7.00940181	      3.60143029	     -2.19666257
      0.51500000	      6.19368136	     -1.43976892	     -2.90501430	     -0.01108787	      0.95123299	      0.27560298	    -12.85463581	      0.32212628	     -7.63206727	     -2.48724542	      4.45071817	      0.00000000	      0.00000000	     -0.04341062	     -0.91102821	     -3.40147506	     -0.00000000	     17.95260946	    -12.25294473	    -18.31581518	    -48.79639023	      0.61098428	     -0.00000000	     -0.00000000	     -0.85165767	      2.20825293	      2.94552890	     -0.00000000	     -7.14897677	      3.26207219	     -1.94694662
      0.52000000	      6.18997404	     -1.49850758	     -3.16123611	     -0.00487653	      0.95077483	      0.27606103	    -13.46355123	      0.34676254	     -7.30050950	     -2.10968885	      4.46029491	     -0.00000000	     -0.00000000	     -0.03682102	     -0.86813923	     -3.49265542	      0.00000000	     18.23815287	    -12.30164851	    -18.65889948	    -47.39938105	      0.66146700	      0.00000000	      0.00000000	     -0.82727526	      2.31830640	      3.07243592	     -0.00000000	     -7.20643730	      3.14480529	     -1.89676486
      0.52500000	      6.19906097	     -1.46996985	     -3.42367675	      0.00136485	      0.95028102	      0.27651182	    -14.04283339	      0.24027343	     -7.08863070	     -1.83899886	      4.49714149	      0.00000000	      0.00000000	     -0.03209659	     -0.68963140	     -3.37956426	      0.00000000	     18.47467622	    -12.21452648	    -19.12551037	    -45.91644624	      0.58560401	      0.00000000	      0.00000000	     -0.80139317	      2.35510729	      3.23114280	     -0.00000000	     -7.26743644	      3.05299785	     -1.61186911
      0.53000000	      6.21775908	     -1.36284381	     -3.56613184	      0.00763680	      0.94974778	      0.27656255	    -14.64328733	     -0.00224528	     -7.07743127	     -1.57601238	      4.64862191	      0.00000000	     -0.00000000	     -0.02750661	     -0.50476377	     -3.23855772	      0.00000000	     18.70444662	    -11.92234252	    -19.53843611	    -44.33311842	      0.40659827	      0.00000000	      0.00000000	     -0.77375888	      2.35105844	      3.33844725	      0.00000000	     -7.33376849	      2.84411243	     -1.54016081
      0.53500000	      6.17101451	     -1.42555551	     -3.73876906	      0.01387663	      0.94896696	      0.27676452	    -15.16368722	     -0.00162662	     -6.96448707	     -1.32005204	      4.68815855	      0.00000000	      0.00000000	     -0.02303925	     -0.32941203	     -3.11790763	     -0.00000000	     19.02474846	    -11.90024667	    -19.95243457	    -42.85284380	      0.27796311	     -0.00000000	     -0.00000000	     -0.74792322	      2.38827831	      3.60739904	     -0.00000000	     -7.33895640	      2.83948063	     -1.41781237
      0.54000000	      6.08066423	     -1.57820203	     -3.81957062	      0.02007042	      0.94801063	      0.27671353	    -15.61563948	      0.10695650	     -6.96219662	     -1.12562589	      4.72151538	      0.00000000	      0.00000000	     -0.01964588	     -0.11057793	     -2.90480088	      0.00000000	     19.43508595	    -11.93499904	    -20.23406090	    -41.39864431	      0.14555408	      0.00000000	      0.00000000	     -0.72254265	      2.42418657	      3.86278902	     -0.00000000	     -7.30056407	      3.02064516	     -1.31091608
